General
Complete name                    : The Man Who Shot Liberty Valance.mkv
Format                           : Matroska
File size                        : 1.49 GiB
Duration                         : 1h 58mn
Overall bit rate                 : 1 803 Kbps


Video
ID                               : 1
Format                           : AVC
Codec ID                         : V_MPEG4/ISO/AVC
Duration                         : 1h 58mn
Bit rate                         : 1 639 Kbps
Width                            : 714 pixels
Height                           : 552 pixels
Display aspect ratio             : 16:9
Frame rate                       : 25.000 fps
Resolution                       : 8 bits
Colorimetry                      : 4:2:0
Scan type                        : Progressive
Bits/(Pixel*Frame)               : 0.166
Stream size                      : 1.35 GiB (91%)
Writing library                  : x264 core 79

Audio
ID                               : 2
Format                           : MPEG Audio
Format version                   : Version 1
Format profile                   : Layer 3
Mode                             : Joint stereo / MS Stereo
Codec ID                         : A_MPEG/L3
Codec ID/Hint                    : MP3
Duration                         : 1h 58mn
Bit rate mode                    : Constant
Bit rate                         : 128 Kbps
Channel(s)                       : 2 channels
Sampling rate                    : 48.0 KHz
Stream size                      : 108 MiB (7%)
Writing library                  : LAME3.98
Language                         : English

Text
Language                         : Swedish



